<svg width="64" height="96" viewBox="0 0 64 96" xmlns="http://www.w3.org/2000/svg">
  <path d="M13 22C18 11 26 8 32 12C38 8 46 11 51 22C57 33 58 48 54 63C51 75 45 85 38 92C36 95 28 95 26 92C19 85 13 75 10 63C6 48 7 33 13 22Z"
        fill="#FFFFFF" stroke="#B7BEC9" stroke-width="2.2" stroke-linecap="round" stroke-linejoin="round"/>
  <path d="M19 25C22 20 27 18 32 19C37 18 42 20 45 25" fill="none" stroke="#D7DCE4" stroke-width="1.5" stroke-linecap="round"/>
  <path d="M24 28C28 25 36 25 40 28" fill="none" stroke="#D7DCE4" stroke-width="1.2" stroke-linecap="round"/>
</svg>
